PathFileType	3	(X/Y/Z)	results
DataRate	CameraRate	NumFrames	NumMarkers	Units	OrigDataRate	OrigDataStartFrame	OrigNumFrames
30.0	30.0	4	85	mm	30.0	25	199
Frame#	Time	head			nose			neck			shoulder_r			elbow_r			wrist_r			shoulder_l			elbow_l			wrist_l			hip_r			knee_r			ankle_r			hip_l			knee_l			ankle_l			heel_r			heel_l			mtoe_r			ltoe_r			mtoe_l			ltoe_l			asis_l			asis_r			psi_r			psi_l			mhnd_r			lhnd_r			mhnd_l			lhnd_l			l_lat_knee			r_med_wrist			l_lat_ankle			r_med_ankle			r_lat_knee			xiphoid			l_med_ankle			r_med_knee			l_med_elbow			navel			r_lat_elbow			r_lat_wrist			l_med_wrist			l_lat_elbow			l_med_knee			r_med_elbow			r_lat_ankle			l_lat_wrist			chin			T10			r_eye			l_eye			l_ear			r_ear			spinal_cord_8			spinal_cord_12			spinal_cord_27			spinal_cord_33			up_arm_r_0			up_arm_r_5			up_arm_l_0			up_arm_l_5			front_torso_11			front_torso_7			front_torso_4			front_torso_1			front_torso_10			thigh_r_2			thigh_r_3			thigh_l_1			thigh_l_5			shank_l_0			shank_l_4			shank_r_1			shank_r_2			foot_r_1			foot_r_3			foot_r_5			foot_r_6			foot_r_7			foot_l_1			foot_l_7			foot_l_0			foot_l_4			foot_l_5			foot_l_6			
		X1	Y1	Z1	X2	Y2	Z2	X3	Y3	Z3	X4	Y4	Z4	X5	Y5	Z5	X6	Y6	Z6	X7	Y7	Z7	X8	Y8	Z8	X9	Y9	Z9	X10	Y10	Z10	X11	Y11	Z11	X12	Y12	Z12	X13	Y13	Z13	X14	Y14	Z14	X15	Y15	Z15	X16	Y16	Z16	X17	Y17	Z17	X18	Y18	Z18	X19	Y19	Z19	X20	Y20	Z20	X21	Y21	Z21	X22	Y22	Z22	X23	Y23	Z23	X24	Y24	Z24	X25	Y25	Z25	X26	Y26	Z26	X27	Y27	Z27	X28	Y28	Z28	X29	Y29	Z29	X30	Y30	Z30	X31	Y31	Z31	X32	Y32	Z32	X33	Y33	Z33	X34	Y34	Z34	X35	Y35	Z35	X36	Y36	Z36	X37	Y37	Z37	X38	Y38	Z38	X39	Y39	Z39	X40	Y40	Z40	X41	Y41	Z41	X42	Y42	Z42	X43	Y43	Z43	X44	Y44	Z44	X45	Y45	Z45	X46	Y46	Z46	X47	Y47	Z47	X48	Y48	Z48	X49	Y49	Z49	X50	Y50	Z50	X51	Y51	Z51	X52	Y52	Z52	X53	Y53	Z53	X54	Y54	Z54	X55	Y55	Z55	X56	Y56	Z56	X57	Y57	Z57	X58	Y58	Z58	X59	Y59	Z59	X60	Y60	Z60	X61	Y61	Z61	X62	Y62	Z62	X63	Y63	Z63	X64	Y64	Z64	X65	Y65	Z65	X66	Y66	Z66	X67	Y67	Z67	X68	Y68	Z68	X69	Y69	Z69	X70	Y70	Z70	X71	Y71	Z71	X72	Y72	Z72	X73	Y73	Z73	X74	Y74	Z74	X75	Y75	Z75	X76	Y76	Z76	X77	Y77	Z77	X78	Y78	Z78	X79	Y79	Z79	X80	Y80	Z80	X81	Y81	Z81	X82	Y82	Z82	X83	Y83	Z83	X84	Y84	Z84	X85	Y85	Z85	
25	0.8333333333333334	-912.4106452567158	1679.6862554915135	-722.8297069856753	-1014.1427014146935	1477.3376322055528	-744.3914959382117	-845.9713786094172	1346.8080570061334	-692.9909989567896	-866.7361196159517	1317.1905850352107	-898.0388499034891	-824.9758525737926	1056.874579651173	-975.7719642784891	-904.2842461974855	840.0197809996357	-1009.3581693643456	-836.5537501525283	1303.1606180287704	-513.092531662912	-768.910154058533	1062.679319224252	-413.8019773194557	-792.266190902436	833.3947366832955	-383.90719220092143	-802.7663387795519	835.6938973182059	-780.2826773418461	-735.6696392510144	477.4653803010042	-754.3555619155561	-613.6464186985995	117.97081118381108	-738.0799123894626	-787.3867420358748	840.9408757834866	-583.213734123218	-982.6288135707226	528.2528574353273	-614.5731120851345	-992.4330965899777	146.02187272945454	-598.447554518439	-583.9511316786685	64.44693483045114	-727.4165381550082	-976.6192290120221	75.82686490696801	-592.643193839987	-788.1079957474223	28.895207575513513	-747.7858797586687	-723.1928427016214	11.086303775315756	-795.4665673791641	-1181.0837496746735	129.86080886088956	-599.1721263355155	-1133.8954348240245	101.08850222498445	-526.2250943359226	-842.9592215416022	899.1295030492552	-536.3437383181978	-861.1226112628556	888.9094129175778	-825.1664998118708	-697.9989274766318	930.290239983386	-741.2981666676155	-697.0335829534954	931.7310356380362	-642.4461763289879	-900.6403933982739	770.6858894242291	-1033.0482852410198	-951.4139936917509	767.3323352703726	-1016.319942749254	-781.6468380039	765.6353042969602	-350.58294476083375	-813.3054980547035	747.8314160908769	-389.781135181316	-996.0152109432985	528.4987033356072	-570.1247509328814	-881.0603383125191	843.9473367446968	-1026.8799046349154	-984.1405382007375	133.1895235192614	-546.4017017500746	-633.4652558784084	102.72403976507732	-710.146120074094	-714.3294085409655	470.27535742137877	-788.6933636803465	-920.0088263164926	1166.1550137537656	-695.1058707442952	-1008.8782621119993	133.97218879195128	-626.3915788262134	-760.3410310927457	470.2431312569888	-724.061016410959	-736.8024409491392	1076.9424925114904	-425.29388721917195	-908.0266758268573	945.8601993248511	-692.1489964433479	-851.8071178774885	1068.7901972076615	-1005.8422778753584	-920.6501375691179	849.9356314873813	-983.2462576347149	-785.0136908628492	846.437268350353	-355.2243108943078	-805.5108871768987	1071.5338268235319	-397.8117048899351	-984.3730661537099	535.6106824403829	-659.8508490950768	-801.5302831388427	1058.1208179504456	-944.9580461174373	-595.533177023333	103.2861993313346	-781.7941440877466	-808.623118243073	839.2855790232334	-409.719854256055	-983.8265747660362	1399.9932155706524	-734.8090897599258	-726.3452127425546	1201.2899004140188	-694.0430442111625	-1008.5719355581202	1510.0891853717671	-780.1466059159819	-1028.1700426355928	1511.2359847808837	-708.9479604321783	-938.2407238351724	1521.8551439996588	-626.213752973996	-886.5775810341323	1516.092746739938	-801.9082540718567	-804.4600385192514	1411.828830330706	-692.5842282830134	-738.6548862039941	1301.162567560999	-691.4208382016573	-723.5962810578627	1048.0903701894993	-707.3558234506407	-738.1524152236099	1190.0874742120693	-693.9900975488856	-890.9688209875524	1177.0591494535984	-921.8263406678486	-813.3302907379708	1174.7812401508788	-972.6938297879142	-847.3856524342767	1254.9102377088873	-475.78819292549844	-746.8224429158755	1141.9189153508366	-439.7555611796964	-871.7185091497932	978.3495632403748	-745.205018384739	-939.9039767395078	1075.6681618543614	-696.4442232511532	-931.7402173555436	1210.7357099277292	-623.8348922455943	-880.8188446906463	1011.6157834327446	-615.394452562684	-943.7505004768611	1250.5640965709936	-783.3087740944744	-777.2570103567551	640.1434662266138	-753.432787472997	-720.6330300136235	611.1967513930243	-825.4080100024086	-913.2026220519089	615.678441775974	-648.355308171645	-878.8027862127544	770.9613038964264	-505.19228514243343	-993.2673674412539	241.33874191006927	-535.3074678519001	-995.5559748223737	378.79598777953083	-655.3568360754292	-663.0317879612239	327.84265509416133	-800.7075787417208	-689.4754917862853	285.5027202599176	-710.6182499055838	-767.5320970671615	17.377807671312876	-762.952864487361	-748.7634394260837	13.088560618556102	-782.1904291315359	-715.90570914491	53.022701409325244	-731.8339657823745	-698.6431817090875	48.24381752338325	-763.9697969221019	-681.8494938769157	28.034862845247876	-784.268420705658	-1160.786418414565	110.22797596684521	-554.0199302164062	-1058.5557478221	111.36729977681419	-537.0564736627258	-1153.6727928293687	107.68104040608122	-540.2272797270283	-1168.9497642906217	113.17331843483964	-570.9726744565388	-1112.4032646246847	113.0182371906692	-564.6027250883792	-1082.6818770531488	117.96067903054016	-592.993131945715	
26	0.8666666666666667	-952.5104078440053	1671.8426820856744	-731.7245071545523	-1055.9460899960563	1469.25663545889	-736.110930362293	-885.0396490890962	1337.5276012168824	-696.7968994598816	-906.6039897402796	1313.9612286302713	-908.0911573665741	-871.8774800020444	1050.9899834600942	-980.1395672589398	-958.9840659357003	837.7074249692387	-1017.1105166654115	-872.6179538788522	1293.402942605776	-522.3402998389731	-796.1651204690149	1055.6980356603128	-422.7568332055865	-830.0649930375922	829.0164574126599	-384.32659578366577	-853.5548772906665	830.0327132711745	-785.0713527341858	-756.2251173823424	479.5006572451658	-752.5350907518042	-617.5312748914823	126.02360127074202	-738.0818108122776	-849.4024524540498	839.6380029889119	-587.6106555366559	-1012.1965077912789	510.49154722483604	-613.2891677460926	-1095.1332202409192	136.96136543178878	-620.5958947341777	-585.3545575699701	74.1239140877496	-727.4736318012073	-1087.8574959630364	67.69929784560001	-619.7982418802326	-786.8960825678647	27.117335560036317	-750.5009158617428	-720.4956863757725	13.22035399912054	-797.4311130754394	-1287.347430190169	132.24721272096178	-648.1772322754514	-1254.4100674593697	84.10948662225513	-577.652473307201	-898.6718157021354	906.7123140750666	-545.842486248338	-900.8010163683578	889.5065241415006	-834.8967611217287	-738.7215546638103	909.9370197079428	-741.7922536609844	-743.4769904043222	914.5416181657636	-643.1468924926304	-957.0234562840685	767.9655826509751	-1039.78030304092	-1008.9561969965646	767.249750450651	-1026.683727874257	-818.1525458001772	760.8144701915734	-352.3703860481427	-858.1019639857609	745.277793550031	-384.2828129266638	-1019.6898094120404	505.13224377619605	-566.9858220258194	-934.4158890451608	840.2924706135256	-1032.969552631195	-1086.8369544049076	118.97110748632339	-570.101052487554	-636.9559775813574	109.57656967230467	-710.5550388260276	-733.004601371025	473.81744159571883	-785.9937278845206	-959.1099300807302	1156.8802110375746	-698.0823088198724	-1115.010960233955	130.3577469473447	-648.1235993648779	-781.7563420726206	470.0733233162981	-723.5144503695079	-766.4523176887336	1067.60175271834	-441.24624146065673	-947.0966596579473	936.580796439348	-695.6390401720656	-895.9092795745439	1063.7580171728446	-1012.164126955853	-976.6592246612429	848.7395299687137	-992.3339178518767	-816.392189758302	841.6133353190412	-357.8731047728889	-828.4589129085973	1067.330963419562	-400.4972118338045	-1027.3269487559048	520.9448699723785	-656.0281009101934	-850.6449485276167	1051.5364163291254	-947.7416289484439	-598.1942453461493	112.65300255273824	-781.6933663967874	-850.6813229060997	836.0063609698234	-406.5673873363028	-1024.6539679576827	1392.1006462572157	-728.3131578352969	-765.4501375366096	1192.007608011243	-699.8531326412644	-1054.6838117097282	1501.1173400081605	-773.0626247172548	-1065.6872830265788	1504.0372311612805	-700.0897124602649	-966.5749654597729	1516.4633858355091	-628.9044808970838	-936.1418995928921	1506.3191212844852	-809.2978445803042	-843.5234263542221	1402.5464307580942	-696.9102004178828	-777.7140839047912	1291.8765454779032	-696.8960028007265	-762.9080465657439	1038.8284041357294	-713.4381262393208	-777.2558300290995	1180.8054699616007	-699.6412022816567	-935.7335307200311	1174.8214914390444	-932.2052849157614	-854.877868045421	1168.2521006202787	-977.3676211840125	-877.7053943574806	1247.9578211334629	-480.5563091196375	-776.5587500530376	1132.0944044551554	-457.6789489360248	-911.5817051071797	969.1496612610879	-749.1809886499676	-979.0275958114051	1066.3960969595298	-699.2613999122769	-969.7752467607668	1201.3528946462184	-626.5767299047369	-918.7442212183909	1002.218836848406	-619.1988033289892	-984.1593294841853	1241.4239583637789	-785.7931684152098	-812.1933683723611	637.6510910847363	-755.2359618774462	-749.9935509709193	613.427605116521	-824.2940935527947	-963.4119860873278	607.4885491941513	-650.2579368202165	-915.7717690773361	753.3276555572251	-501.0831000835745	-1074.2287610442095	225.7610662776603	-551.6735557004322	-1055.9428184657845	369.64968429499424	-662.4583600993717	-676.0064541847078	333.9509065927828	-799.3534948466335	-701.5475543057607	289.50172232778687	-710.0229348647102	-765.5149170618579	16.849633767193236	-765.4500159788739	-746.2990866928973	13.712418945477618	-784.4672131898228	-716.3824682574866	55.241284435068984	-733.5703693436645	-698.4847593051142	51.5826481140714	-765.5051563671558	-680.3226062713003	32.443739993088236	-785.6620986155872	-1275.734901798748	101.1488944776497	-606.5335726751873	-1178.2875204557172	92.79137499938537	-572.2651226907781	-1271.265592929859	94.94270468173482	-592.7918026403363	-1280.659046205053	108.56758341060932	-623.3688526490721	-1226.215891459205	103.92063984762915	-607.4799966028631	-1191.7942278524515	114.09784268900809	-628.1046766952173	
27	0.9	-995.7696309748891	1662.1026150088958	-734.1226661441649	-1101.6716396628728	1460.820629820072	-728.6807608726945	-924.2359396693515	1328.1271285966047	-704.3247147572074	-952.4347367802585	1303.1901030427289	-906.216533379021	-918.276707778795	1043.2117310824322	-988.6498688725004	-1021.0067206683449	835.3711310528007	-1014.9688278274856	-907.1120884257011	1284.3696652528854	-535.6814814046644	-831.2820446551948	1046.4457373975767	-436.14488328753134	-870.1712429389057	822.0429103211798	-389.867200952646	-899.2163235821622	823.1247192378501	-789.7159032361243	-778.3845958381395	480.469238894397	-753.0857579540516	-622.0767460920215	134.39868481347312	-739.1596654617924	-901.1433729755815	826.5099772457347	-592.0164908212781	-1057.2897697395974	495.6645259497595	-628.4620060623749	-1174.2193687423303	131.73743425497048	-646.9342568513948	-587.2334152356652	84.27400485674139	-728.7026569027788	-1171.515996909163	63.323066815375086	-646.4623373917772	-786.1828918240998	26.60806671799628	-749.9771928161654	-719.5057008822164	16.05919534913442	-797.3845302485771	-1365.2252651480615	134.8211646800837	-692.6443216349181	-1340.9117901005936	83.8694470220604	-620.6121790598328	-950.5958368105881	893.1022768559209	-549.6970770549436	-943.879849320707	884.9348108173094	-839.0776820301919	-784.5066291104089	899.6283084926769	-740.3868305246048	-792.2980463085278	901.2448709330954	-641.8403728510993	-1024.9228465038177	765.1850384995067	-1035.9513001556932	-1075.8947319379313	768.1590240921413	-1019.7628919654837	-858.2688153149701	754.1287118175429	-357.30018298944015	-901.0855267159741	739.4284213521697	-385.6969787372748	-1059.856746281742	485.8811642628675	-582.0491670467867	-997.3404556806079	835.9998808121068	-1032.3268050639692	-1171.553437628217	112.7449867875977	-596.1958468273168	-640.4411574214741	117.05507923728553	-711.4559682155161	-754.5567368964046	476.0156244789488	-786.3365703729448	-1001.6598381859077	1148.886878343095	-704.2197883323641	-1192.4590951195194	127.21130559972538	-675.9744598058397	-803.5930268175132	469.43836341547535	-724.3156652715215	-802.7017940272402	1056.849768794176	-457.1528044417533	-993.8615047519901	928.4751044262305	-697.8986954891851	-943.6324853633743	1056.8388326788534	-1019.2686399864108	-1036.3862436646702	848.064011423134	-989.4666811380531	-854.0615366652106	834.6724453862946	-364.8394907702502	-861.3454917228372	1059.7363195890127	-411.78806991998306	-1078.910890069956	509.3571694086381	-667.6219971997871	-895.8167983126242	1042.8501631492027	-957.087753546295	-602.4328132415784	121.92600658970382	-782.8999169735221	-892.1774740579647	829.3296818732148	-410.63191549815394	-1070.6963365479917	1383.189141695665	-726.0479911775999	-807.3770167414149	1180.385860231828	-702.4352674093918	-1104.5988332730308	1493.2892252753668	-765.0035829447696	-1106.372179048459	1495.092407034868	-691.1913085662075	-998.9947316502399	1505.166955430378	-632.7654130144562	-991.4441569450676	1497.7468014449746	-815.6828080285452	-881.5065012576466	1392.3545757545235	-704.6212055411964	-817.8129394923794	1280.500484527604	-701.3830380681426	-807.4419789633142	1026.978812630619	-713.4423698296348	-819.3939227176168	1169.4095046960142	-702.2911268587702	-981.2882457274433	1164.6843006085564	-934.0284999454816	-902.1802157867536	1160.4701330670234	-982.4494880634604	-910.4895756847313	1240.1120288373563	-492.4738756457665	-811.8587198635523	1121.2659750018406	-474.420666648505	-956.6200968073963	959.474236443865	-751.1989257681229	-1023.2528980668285	1058.7802475620665	-704.3356275402945	-1012.9848719465198	1194.7472970419897	-633.6989971406048	-965.8885682686767	994.8545302827497	-621.9604997620352	-1023.2589710699782	1232.3911925558166	-793.8234683901785	-845.0964938935928	634.2760953788076	-757.7963978564184	-780.6602728622483	613.8217039462804	-826.0181788214409	-1016.7641659230502	597.1660281053479	-661.6541942555177	-954.2049114768438	730.559590096583	-506.46313639660576	-1150.3985519489054	217.74693571227067	-575.4667366141114	-1110.1989775468505	359.8996743715657	-682.6496461015239	-691.3505675316828	339.0210193460743	-800.3002250751952	-713.9452508094532	293.5260296759225	-710.7027199403356	-764.4053976371458	17.427196787063934	-765.0605580594563	-745.1981671527082	15.237230105073635	-784.2185951827067	-717.1243637635641	58.478413711704064	-733.6992816033626	-699.3056182031377	55.64962095905559	-765.7622581639419	-680.3142489070924	37.42047926188936	-785.9981226856166	-1358.739120357531	102.30981812845776	-650.9658755354903	-1265.4936991039056	90.0119931190558	-607.4432165858155	-1355.8484644143261	95.61395868094249	-637.0325582091565	-1361.7375300558294	110.31123032574841	-667.9863848565255	-1309.3152027615124	103.5468110248646	-646.9091658230673	-1272.7232152309552	113.16513480943307	-663.7114903105236	
28	0.9333333333333333	-1043.4652839503935	1652.7137190652757	-733.5682440954606	-1150.776619976375	1452.398483728386	-722.7344547799597	-966.0965341067129	1318.1570869382992	-710.7948667878501	-1006.5497964858428	1285.019422789041	-894.0781004240635	-966.1214594774166	1033.6617697508602	-997.6911278812432	-1087.7100800480628	834.6328210736178	-1004.586278756866	-945.8372529000408	1278.031736842542	-546.1871223067872	-876.2840123164153	1035.8920652436047	-452.39878875009254	-910.1674301062175	811.3570871190506	-402.93587311822284	-948.7504388480227	815.4394086957303	-794.7965859658943	-805.5161113325913	481.87061642234625	-755.567321466686	-630.5169768664164	144.83489342296474	-742.4093313234471	-951.5041164417459	814.7117775950991	-597.0793156706283	-1108.5245426454564	485.01617239820996	-638.737333981214	-1237.3705541437305	126.11131717832325	-671.028098328911	-592.8242187369698	96.72354820163056	-732.3189102422681	-1237.6288888749355	57.32351970362082	-672.7829023553928	-788.8063177005438	28.411148660074215	-749.1502348862277	-722.6244960494091	21.05568641408055	-797.8374588733569	-1428.404280847219	139.15180205026627	-713.733070786961	-1404.879177027405	87.02685989771088	-642.2809045426553	-999.6891059866351	881.4642887989854	-553.5669914533954	-991.8339642275178	879.2334401492753	-843.025566361003	-832.6302030849378	888.3666680259571	-743.3944820968891	-840.8335214855241	888.0822889502774	-644.8686049283257	-1099.4989254692612	764.3481052910274	-1021.9865553483	-1148.1287919325412	772.2655156523713	-1000.9748215864212	-897.106543291634	744.3408708683114	-368.9821281730626	-938.9915877532101	728.0387884260642	-397.8894366296693	-1112.033283108786	474.8208606700856	-592.4079256609369	-1065.9739645668642	832.610712672613	-1024.2137890389797	-1236.7266302420192	105.58502269831921	-620.8238843802142	-647.3611741215751	126.75323789197857	-714.2158240733532	-781.9480181756854	478.44157491753003	-789.1439704927232	-1045.924144471233	1139.976371797264	-711.6456060646648	-1254.96692236144	123.06715438872217	-700.6525433871916	-829.6023382765235	469.5605555249867	-726.3378877283922	-847.0045774420228	1046.4963481808709	-472.315395471689	-1041.278838883293	919.5206867454878	-703.9104677592192	-993.7582432586339	1048.289393352935	-1025.768936010621	-1099.3043053537044	849.4929296339958	-978.2661431456039	-894.8592857980345	824.8284517559276	-377.8440991311203	-906.774304241751	1048.8852666953094	-428.41496928068636	-1129.7344385158715	499.14320227696425	-678.0349381599897	-941.8855088981926	1032.0445758132219	-967.5125134042152	-611.1073912360552	133.08343748509122	-786.4528628713788	-931.9669029251044	817.7089428227034	-424.2192359120108	-1120.5607155676641	1374.4357964805868	-724.1009633242411	-851.3375963642532	1168.8735796314643	-705.1485483782154	-1156.3961618417347	1485.5606971900133	-758.1013023083939	-1151.9114075904558	1486.0142173097577	-684.3833983267979	-1039.8787595005251	1493.9671365389443	-635.0839577230064	-1047.8811641655104	1489.8617772441205	-818.086555537693	-922.5053711781104	1381.802112961739	-710.3718310971439	-860.4369550292705	1269.1237667180383	-704.9133269349622	-853.2084496468337	1015.4192261134777	-715.3045353746414	-863.5021964782167	1158.0606155245423	-705.246005433287	-1031.0136548177304	1147.7206530739827	-930.6903284502561	-954.7191029341526	1150.7772698533422	-983.5129575616019	-951.0257948301975	1232.488646357174	-504.5224017584502	-854.7228380089147	1111.5652655969643	-487.7407129164161	-1002.2951287212829	949.7033125079502	-756.4277281925064	-1068.7284036379065	1050.1686959499182	-711.8058783609677	-1058.3907997857257	1186.398185076476	-641.6869458404418	-1014.3208961828213	985.9634235411398	-627.6611728424964	-1064.1339996033805	1223.2354138542605	-802.2251048775936	-882.1175050725664	630.9161211639204	-761.2880494775957	-817.4364898739323	613.7316462193141	-830.1769469972039	-1067.2452381156995	586.5788932127142	-670.3978285151564	-1006.2696528257553	718.2859992827051	-513.1496700325856	-1212.5360762325022	209.13767790402483	-596.4456323330206	-1164.597214132743	352.8123769725302	-698.2838831270404	-711.9388673921553	344.9321736985409	-803.5557484367831	-730.2496653650386	299.01431918049775	-713.1992764054047	-766.8771510596024	20.284611545396466	-764.6139529957774	-747.9679719246766	18.971181404370036	-784.1450023550491	-721.231035022026	64.02809502882542	-734.494723597878	-703.9324432301105	61.904161925749584	-766.8952152283955	-684.4061734451486	44.55494522675489	-787.3938345943412	-1422.5240235146116	106.37616945700424	-672.171898042194	-1328.9012304163675	89.09323033486329	-631.2299934142783	-1419.611736537118	99.54677623758103	-658.3080699253138	-1425.5594656145347	114.51214709495369	-689.1219055510433	-1373.0115480088205	104.94172217767806	-669.4946221979935	-1336.4364225039092	112.55093877681408	-687.3317696462382	
